<?xml version="1.0" standalone="no"?>
<svg xmlns:xlink="http://www.w3.org/1999/xlink" id="wave" style="transform:rotate(180deg); transition: 0.3s" viewBox="0 0 1440 440" version="1.1" xmlns="http://www.w3.org/2000/svg"><defs><linearGradient id="sw-gradient-0" x1="0" x2="0" y1="1" y2="0"><stop stop-color="rgba(60, 87, 200, 1)" offset="0%"/><stop stop-color="rgba(112, 44, 200, 1)" offset="100%"/></linearGradient></defs><path style="transform:translate(0, 0px); opacity:1" fill="url(#sw-gradient-0)" d="M0,308L48,271.3C96,235,192,161,288,117.3C384,73,480,59,576,95.3C672,132,768,220,864,227.3C960,235,1056,161,1152,154C1248,147,1344,205,1440,227.3C1536,249,1632,235,1728,198C1824,161,1920,103,2016,110C2112,117,2208,191,2304,198C2400,205,2496,147,2592,102.7C2688,59,2784,29,2880,36.7C2976,44,3072,88,3168,132C3264,176,3360,220,3456,256.7C3552,293,3648,323,3744,337.3C3840,352,3936,352,4032,300.7C4128,249,4224,147,4320,139.3C4416,132,4512,220,4608,271.3C4704,323,4800,337,4896,337.3C4992,337,5088,323,5184,264C5280,205,5376,103,5472,66C5568,29,5664,59,5760,73.3C5856,88,5952,88,6048,124.7C6144,161,6240,235,6336,234.7C6432,235,6528,161,6624,176C6720,191,6816,293,6864,344.7L6912,396L6912,440L6864,440C6816,440,6720,440,6624,440C6528,440,6432,440,6336,440C6240,440,6144,440,6048,440C5952,440,5856,440,5760,440C5664,440,5568,440,5472,440C5376,440,5280,440,5184,440C5088,440,4992,440,4896,440C4800,440,4704,440,4608,440C4512,440,4416,440,4320,440C4224,440,4128,440,4032,440C3936,440,3840,440,3744,440C3648,440,3552,440,3456,440C3360,440,3264,440,3168,440C3072,440,2976,440,2880,440C2784,440,2688,440,2592,440C2496,440,2400,440,2304,440C2208,440,2112,440,2016,440C1920,440,1824,440,1728,440C1632,440,1536,440,1440,440C1344,440,1248,440,1152,440C1056,440,960,440,864,440C768,440,672,440,576,440C480,440,384,440,288,440C192,440,96,440,48,440L0,440Z"/></svg>